<svg width="38" height="30" viewBox="0 0 38 30" fill="none" xmlns="http://www.w3.org/2000/svg">
<path d="M12.495 21.238H19.336V24.532C19.3357 24.7118 19.3839 24.8884 19.4756 25.0432C19.5672 25.1979 19.6989 25.3251 19.8567 25.4113C20.0146 25.4975 20.1928 25.5395 20.3725 25.5329C20.5522 25.5264 20.7269 25.4715 20.878 25.374L28.506 20.443C31.532 18.474 33.677 15.99 33.677 12.419C33.6765 10.0819 32.748 7.84061 31.0956 6.18783C29.4432 4.53506 27.2021 3.60604 24.865 3.60498H12.495C10.1567 3.60498 7.91421 4.53386 6.26079 6.18727C4.60738 7.84069 3.6785 10.0832 3.6785 12.4215C3.6785 14.7598 4.60738 17.0023 6.26079 18.6557C7.91421 20.3091 10.1567 21.238 12.495 21.238ZM24.36 10.826C24.7012 10.8254 25.035 10.9261 25.3189 11.1153C25.6029 11.3045 25.8243 11.5737 25.9552 11.8888C26.086 12.204 26.1204 12.5509 26.054 12.8856C25.9876 13.2203 25.8233 13.5277 25.582 13.769C25.3408 14.0103 25.0333 14.1746 24.6986 14.241C24.3639 14.3074 24.017 14.273 23.7019 14.1422C23.3867 14.0113 23.1175 13.7899 22.9283 13.5059C22.7391 13.2219 22.6384 12.8882 22.639 12.547C22.6393 12.0906 22.8207 11.653 23.1434 11.3303C23.4661 11.0076 23.9036 10.8262 24.36 10.826ZM18.782 10.826C19.1232 10.8254 19.457 10.9261 19.7409 11.1153C20.0249 11.3045 20.2463 11.5737 20.3772 11.8888C20.508 12.204 20.5424 12.5509 20.476 12.8856C20.4096 13.2203 20.2453 13.5277 20.004 13.769C19.7628 14.0103 19.4553 14.1746 19.1206 14.241C18.7859 14.3074 18.439 14.273 18.1239 14.1422C17.8087 14.0113 17.5395 13.7899 17.3503 13.5059C17.1611 13.2219 17.0604 12.8882 17.061 12.547C17.0613 12.0906 17.2427 11.653 17.5654 11.3303C17.8881 11.0076 18.3256 10.8262 18.782 10.826ZM12.996 10.826C13.3373 10.825 13.6712 10.9253 13.9554 11.1142C14.2396 11.3032 14.4613 11.5722 14.5925 11.8872C14.7237 12.2023 14.7584 12.5492 14.6923 12.884C14.6262 13.2188 14.4622 13.5264 14.2211 13.768C13.98 14.0095 13.6726 14.174 13.3379 14.2407C13.0033 14.3074 12.6563 14.2733 12.341 14.1426C12.0257 14.012 11.7563 13.7907 11.5669 13.5068C11.3775 13.223 11.2766 12.8893 11.277 12.548C11.277 12.0918 11.458 11.6543 11.7803 11.3314C12.1026 11.0086 12.5398 10.8268 12.996 10.826Z" fill="#E113A5" stroke="#F5F5F5" stroke-width="7"/>
<path d="M32.287 8.82598H8.269V16.136H32.287V8.82598Z" fill="white"/>
<path d="M12.495 21.238H19.336V24.532C19.3357 24.7118 19.3839 24.8884 19.4756 25.0432C19.5672 25.1979 19.6989 25.3251 19.8567 25.4113C20.0146 25.4975 20.1928 25.5395 20.3725 25.5329C20.5522 25.5264 20.7269 25.4715 20.878 25.374L28.506 20.443C31.532 18.474 33.677 15.99 33.677 12.419C33.6765 10.0819 32.748 7.84061 31.0956 6.18783C29.4432 4.53506 27.2021 3.60604 24.865 3.60498H12.495C10.1567 3.60498 7.91421 4.53386 6.26079 6.18727C4.60738 7.84069 3.6785 10.0832 3.6785 12.4215C3.6785 14.7598 4.60738 17.0023 6.26079 18.6557C7.91421 20.3091 10.1567 21.238 12.495 21.238ZM24.36 10.826C24.7012 10.8254 25.035 10.9261 25.3189 11.1153C25.6029 11.3045 25.8243 11.5737 25.9552 11.8888C26.086 12.204 26.1204 12.5509 26.054 12.8856C25.9876 13.2203 25.8233 13.5277 25.582 13.769C25.3408 14.0103 25.0333 14.1746 24.6986 14.241C24.3639 14.3074 24.017 14.273 23.7019 14.1422C23.3867 14.0113 23.1175 13.7899 22.9283 13.5059C22.7391 13.2219 22.6384 12.8882 22.639 12.547C22.6393 12.0906 22.8207 11.653 23.1434 11.3303C23.4661 11.0076 23.9036 10.8262 24.36 10.826ZM18.782 10.826C19.1232 10.8254 19.457 10.9261 19.7409 11.1153C20.0249 11.3045 20.2463 11.5737 20.3772 11.8888C20.508 12.204 20.5424 12.5509 20.476 12.8856C20.4096 13.2203 20.2453 13.5277 20.004 13.769C19.7628 14.0103 19.4553 14.1746 19.1206 14.241C18.7859 14.3074 18.439 14.273 18.1239 14.1422C17.8087 14.0113 17.5395 13.7899 17.3503 13.5059C17.1611 13.2219 17.0604 12.8882 17.061 12.547C17.0613 12.0906 17.2427 11.653 17.5654 11.3303C17.8881 11.0076 18.3256 10.8262 18.782 10.826ZM12.996 10.826C13.3373 10.825 13.6712 10.9253 13.9554 11.1142C14.2396 11.3032 14.4613 11.5722 14.5925 11.8872C14.7237 12.2023 14.7584 12.5492 14.6923 12.884C14.6262 13.2188 14.4622 13.5264 14.2211 13.768C13.98 14.0095 13.6726 14.174 13.3379 14.2407C13.0033 14.3074 12.6563 14.2733 12.341 14.1426C12.0257 14.012 11.7563 13.7907 11.5669 13.5068C11.3775 13.223 11.2766 12.8893 11.277 12.548C11.277 12.0918 11.458 11.6543 11.7803 11.3314C12.1026 11.0086 12.5398 10.8268 12.996 10.826Z" fill="#3CD9CD"/>
<path d="M3.993 10.072C4.50808 8.21308 5.61816 6.5742 7.15331 5.40623C8.68845 4.23826 10.5641 3.60556 12.493 3.60498H24.863C26.0203 3.60422 27.1663 3.8319 28.2354 4.27498C29.3045 4.71805 30.2756 5.36781 31.093 6.18698C31.582 6.67702 32.0122 7.22236 32.375 7.81198C32.1443 7.85932 31.911 7.89765 31.675 7.92698L8.652 10.753C8.28704 10.7978 7.91969 10.8202 7.552 10.82C6.32666 10.8199 5.11471 10.5651 3.993 10.072Z" fill="#09A1D0"/>
</svg>
