<svg width="19" height="19" viewBox="0 0 19 19" fill="none" xmlns="http://www.w3.org/2000/svg">
<mask id="mask0_1_1182" style="mask-type:luminance" maskUnits="userSpaceOnUse" x="3" y="1" width="13" height="17">
<path d="M15.7691 1.17804H3.55408V17.983H15.7691V1.17804Z" fill="white"/>
</mask>
<g mask="url(#mask0_1_1182)">
<path d="M5.40502 5.69904C5.81668 6.32265 6.1209 7.01085 6.30502 7.73504C7.71235 5.8362 8.48405 3.54141 8.51002 1.17804C9.58404 1.79029 10.5095 2.63238 11.22 3.64404C11.9328 4.65541 12.4179 5.80922 12.642 7.02604C12.9295 6.65564 13.1137 6.21573 13.176 5.75104C13.235 5.30904 13.243 4.86004 13.276 4.38204C13.465 4.62404 13.659 4.85004 13.829 5.09304C14.7987 6.43908 15.4339 7.99672 15.682 9.63704C15.9526 11.2127 15.7165 12.8336 15.0076 14.2667C14.2987 15.6997 13.1536 16.8709 11.737 17.612C11.494 17.7447 11.2443 17.8648 10.989 17.972C11.5007 17.1052 11.8055 16.132 11.8799 15.1282C11.9543 14.1243 11.7963 13.1169 11.418 12.184C11.0649 11.2951 10.5031 10.5042 9.78002 9.87804C9.99884 10.5631 10.0651 11.2878 9.97428 12.0013C9.88341 12.7147 9.63758 13.3996 9.25402 14.008C9.15402 13.572 9.07602 13.153 8.97002 12.741C8.86479 12.3077 8.6673 11.9021 8.39102 11.552C8.37702 11.818 8.37102 12.036 8.35302 12.252C8.30197 12.8423 8.15081 13.4195 7.90602 13.959C7.6272 14.5783 7.4999 15.255 7.53468 15.9332C7.56946 16.6114 7.76532 17.2716 8.10602 17.859C8.12302 17.893 8.13802 17.928 8.16802 17.992C7.37928 17.744 6.63474 17.3728 5.96202 16.892C4.86043 16.0747 4.07279 14.904 3.73078 13.5756C3.38877 12.2473 3.51311 10.8417 4.08302 9.59404C4.20002 9.32304 4.32502 9.05504 4.46002 8.79404C4.90194 7.90166 5.20349 6.94641 5.35402 5.96204C5.36702 5.88604 5.38502 5.81104 5.40902 5.69904" fill="white"/>
</g>
</svg>
