<svg width="14" height="13" viewBox="0 0 14 13" fill="none" xmlns="http://www.w3.org/2000/svg">
<path d="M13.3011 3.758V3.91C13.3011 5.85867 13.3011 7.80767 13.3011 9.757C13.3056 9.79937 13.2958 9.84202 13.2733 9.87823C13.2509 9.91443 13.217 9.94214 13.1771 9.957C11.2338 10.9297 9.29178 11.9047 7.35111 12.882C7.29811 12.909 7.2431 12.932 7.1731 12.964V12.81C7.1731 10.866 7.1731 8.92167 7.1731 6.977C7.16789 6.93531 7.17664 6.89307 7.19799 6.85688C7.21934 6.82069 7.25208 6.7926 7.2911 6.777C9.25176 5.79633 11.2108 4.81333 13.1681 3.828C13.2051 3.81 13.2421 3.79301 13.3011 3.76501" fill="white"/>
<path d="M0.716984 3.757L0.968984 3.882C1.59498 4.197 2.22098 4.514 2.84898 4.824C2.88537 4.83685 2.91633 4.86164 2.93684 4.89432C2.95736 4.927 2.96622 4.96565 2.96198 5.004C2.96198 5.672 2.96198 6.341 2.96198 7.009V7.179C3.22398 7.179 3.47598 7.179 3.72698 7.179C3.77087 7.17686 3.81466 7.18476 3.85504 7.20209C3.89541 7.21942 3.9313 7.24572 3.95998 7.279C4.21498 7.539 4.47698 7.793 4.75398 8.066V5.796C4.81398 5.822 4.85398 5.837 4.88898 5.855L6.73098 6.779C6.79498 6.811 6.84298 6.838 6.84298 6.931C6.83898 8.91767 6.83898 10.9043 6.84298 12.891C6.84298 12.909 6.84298 12.928 6.83698 12.964C6.78498 12.939 6.73698 12.919 6.69498 12.897C4.73632 11.9117 2.77965 10.9283 0.824984 9.947C0.751984 9.91 0.708984 9.87801 0.708984 9.78401C0.708984 7.80201 0.708984 5.82 0.708984 3.838C0.708984 3.819 0.708984 3.801 0.713984 3.757" fill="white"/>
<path d="M13.105 3.472L11.87 4.095C10.2953 4.88567 8.721 5.67733 7.147 6.47C7.10418 6.49595 7.05507 6.50967 7.005 6.50967C6.95493 6.50967 6.90582 6.49595 6.863 6.47C6.273 6.17 5.678 5.87 5.086 5.57C5.045 5.549 5.005 5.527 4.948 5.496L6.11 4.876C7.65667 4.05067 9.20267 3.22467 10.748 2.398C10.7827 2.37659 10.8227 2.36525 10.8635 2.36525C10.9043 2.36525 10.9443 2.37659 10.979 2.398C11.65 2.739 12.323 3.075 12.995 3.413C13.028 3.429 13.059 3.45 13.105 3.477" fill="white"/>
<path d="M0.903076 3.47L2.02408 2.904C3.64008 2.09267 5.25541 1.28034 6.87008 0.467002C6.91263 0.441335 6.96138 0.427771 7.01108 0.427771C7.06077 0.427771 7.10952 0.441335 7.15208 0.467002C7.73808 0.767002 8.32808 1.06 8.91708 1.356C8.95808 1.376 8.99708 1.4 9.05608 1.433C8.96108 1.485 8.88208 1.533 8.80108 1.574C6.95708 2.562 5.10974 3.54734 3.25908 4.53C3.23063 4.54609 3.19926 4.55632 3.1668 4.5601C3.13434 4.56388 3.10145 4.56112 3.07008 4.552C2.35408 4.201 1.64108 3.84 0.903076 3.47Z" fill="white"/>
</svg>
