<svg width="19" height="19" viewBox="0 0 19 19" fill="none" xmlns="http://www.w3.org/2000/svg">
<mask id="mask0_1_2245" style="mask-type:luminance" maskUnits="userSpaceOnUse" x="3" y="3" width="13" height="14">
<path d="M15.948 3.448H3.49097V16.462H15.948V3.448Z" fill="white"/>
</mask>
<g mask="url(#mask0_1_2245)">
<path d="M14.771 9.955C14.7691 9.68963 14.7464 9.42481 14.703 9.163L15.948 7.73L14.761 5.673L12.902 6.034C12.4874 5.69848 12.0223 5.43083 11.524 5.241L10.907 3.448H8.53197L7.91397 5.241C7.4156 5.43083 6.95049 5.69848 6.53597 6.034L4.67797 5.673L3.49097 7.729L4.73597 9.163C4.69253 9.42481 4.66979 9.68963 4.66797 9.955C4.66979 10.2204 4.69253 10.4852 4.73597 10.747L3.49097 12.18L4.67797 14.236L6.53697 13.875C6.95149 14.2105 7.4166 14.4782 7.91497 14.668L8.53297 16.461H10.907L11.525 14.668C12.0233 14.4782 12.4884 14.2105 12.903 13.875L14.762 14.236L15.949 12.18L14.703 10.748C14.7464 10.4862 14.7691 10.2204 14.771 9.955ZM9.71997 12.748C9.16618 12.748 8.62483 12.5838 8.16437 12.2761C7.70391 11.9684 7.34503 11.5311 7.1331 11.0195C6.92118 10.5079 6.86573 9.9449 6.97377 9.40175C7.08181 8.8586 7.34848 8.35969 7.74007 7.9681C8.13165 7.57652 8.63057 7.30984 9.17371 7.2018C9.71686 7.09376 10.2798 7.14921 10.7915 7.36114C11.3031 7.57306 11.7404 7.93195 12.0481 8.39241C12.3557 8.85286 12.52 9.39421 12.52 9.948C12.52 10.6906 12.225 11.4028 11.6999 11.9279C11.1748 12.453 10.4626 12.748 9.71997 12.748Z" fill="white"/>
</g>
<mask id="mask1_1_2245" style="mask-type:luminance" maskUnits="userSpaceOnUse" x="8" y="8" width="4" height="4">
<path d="M11.005 8.563H8.43604V11.346H11.005V8.563Z" fill="white"/>
</mask>
<g mask="url(#mask1_1_2245)">
<path d="M9.69398 8.563H9.74798C9.77471 8.57896 9.80012 8.59702 9.82398 8.617C9.90098 8.691 9.97298 8.771 10.053 8.841C10.194 8.966 10.341 9.084 10.485 9.206C10.6314 9.32386 10.7589 9.46348 10.863 9.62C10.927 9.71599 10.9706 9.82407 10.9913 9.93758C11.0119 10.0511 11.0091 10.1676 10.983 10.28C10.9441 10.4475 10.8434 10.5941 10.7009 10.6903C10.5585 10.7866 10.3849 10.8254 10.215 10.799C10.0927 10.78 9.97758 10.7293 9.88098 10.652L9.86498 10.642H9.85698C9.89998 10.761 9.93798 10.882 9.98598 10.998C10.034 11.114 10.094 11.227 10.147 11.34C9.86182 11.2901 9.57015 11.2901 9.28498 11.34C9.41786 11.1183 9.51885 10.8789 9.58498 10.629L9.56198 10.646C9.48068 10.7124 9.38505 10.759 9.28266 10.782C9.18026 10.8051 9.0739 10.8041 8.97198 10.779C8.88373 10.7618 8.80009 10.7262 8.72652 10.6745C8.65294 10.6228 8.59109 10.5562 8.54498 10.479C8.48216 10.3713 8.44594 10.2501 8.43933 10.1256C8.43273 10.0011 8.45592 9.87677 8.50698 9.763C8.56915 9.61087 8.66407 9.4743 8.78498 9.363C8.91798 9.244 9.05698 9.126 9.19598 9.008C9.33948 8.89323 9.47481 8.76859 9.60098 8.635C9.62518 8.60331 9.65724 8.5785 9.69398 8.563Z" fill="white"/>
</g>
</svg>
