<svg width="14" height="17" viewBox="0 0 14 17" fill="none" xmlns="http://www.w3.org/2000/svg">
<path fill-rule="evenodd" clip-rule="evenodd" d="M10.8631 14.97H2.537C2.28433 14.9697 2.04208 14.8692 1.86342 14.6906C1.68475 14.5119 1.58426 14.2696 1.584 14.017C1.58559 12.6606 2.12515 11.3603 3.08424 10.4012C4.04334 9.44208 5.34361 8.90256 6.69997 8.90097C8.05623 8.90256 9.35651 9.44211 10.3154 10.4012C11.2744 11.3604 11.8136 12.6607 11.815 14.017C11.8147 14.2695 11.7144 14.5116 11.5359 14.6902C11.3575 14.8688 11.1155 14.9694 10.8631 14.97ZM3.66298 4.81097C3.66404 4.00663 3.98399 3.23553 4.55275 2.66678C5.12151 2.09802 5.89269 1.77802 6.69704 1.77696C7.50138 1.77802 8.27245 2.09802 8.8412 2.66678C9.40996 3.23553 9.72991 4.00663 9.73097 4.81097C9.72991 5.61532 9.40996 6.3864 8.8412 6.95515C8.27245 7.52391 7.50138 7.84391 6.69704 7.84497C5.89269 7.84391 5.12151 7.52391 4.55275 6.95515C3.98399 6.3864 3.66404 5.61532 3.66298 4.81097ZM8.90004 8.25296C9.47822 7.88368 9.95414 7.37486 10.2841 6.77336C10.614 6.17186 10.7873 5.49702 10.788 4.81097C10.7856 3.7267 10.3539 2.68752 9.58717 1.92082C8.82048 1.15413 7.78131 0.722348 6.69704 0.719971C5.61277 0.722348 4.5736 1.15413 3.8069 1.92082C3.0402 2.68752 2.60835 3.7267 2.60597 4.81097C2.60657 5.49704 2.77981 6.17192 3.10976 6.77344C3.4397 7.37495 3.91579 7.88375 4.49403 8.25296C3.32735 8.70001 2.32347 9.4901 1.61476 10.5191C0.906057 11.548 0.525824 12.7676 0.524063 14.017C0.524593 14.5496 0.736407 15.0603 1.11305 15.437C1.4897 15.8136 2.00032 16.0254 2.53297 16.026H10.859C11.3917 16.0254 11.9023 15.8136 12.2789 15.437C12.6556 15.0603 12.8675 14.5496 12.8681 14.017C12.8664 12.7675 12.4862 11.5479 11.7775 10.5189C11.0688 9.48995 10.0647 8.69989 8.89796 8.25296H8.90004Z" fill="#121627" stroke="#121627"/>
</svg>
