<svg width="19" height="19" viewBox="0 0 19 19" fill="none" xmlns="http://www.w3.org/2000/svg">
<path d="M5.28503 4.25202C5.35275 4.25188 5.41982 4.26512 5.48242 4.29094C5.54502 4.31676 5.60185 4.35468 5.64978 4.40251C5.69771 4.45035 5.73577 4.50716 5.76172 4.5697C5.78766 4.63225 5.80103 4.6993 5.80103 4.76701V5.22102C6.67311 4.57751 7.73237 4.23813 8.81604 4.25502C9.87754 4.27891 10.9244 4.50777 11.899 4.92902C12.189 5.05027 12.4997 5.11412 12.814 5.11702C13.3258 5.11254 13.8204 4.93131 14.214 4.60402L14.228 4.59203C14.3223 4.51679 14.4397 4.47663 14.5603 4.47846C14.6809 4.48028 14.7971 4.52397 14.889 4.60202C14.895 4.60902 14.9019 4.61402 14.9089 4.62302L14.9399 4.65402L15.955 5.73203L15.9609 5.74002C15.9653 5.74401 15.9694 5.74836 15.973 5.75302C16.0577 5.84829 16.1037 5.97178 16.1021 6.09926C16.1004 6.22674 16.0512 6.34899 15.964 6.44202L15.953 6.45603L15.941 6.46802H15.936C15.0114 7.40803 14.1731 8.42912 13.431 9.51901C12.1677 11.6538 11.5027 14.0895 11.506 16.57C11.506 16.752 11.517 17.127 11.517 17.133C11.517 17.2694 11.4628 17.4003 11.3665 17.4968C11.2701 17.5934 11.1393 17.6478 11.0029 17.648H6.88196C6.75375 17.6479 6.63014 17.6002 6.53516 17.514C6.44018 17.4279 6.38069 17.3096 6.36804 17.182C6.36804 17.176 6.36804 17.167 6.36804 17.16V17.139C6.35804 16.95 6.35303 16.759 6.35303 16.576C6.3516 14.8413 6.78828 13.1342 7.62268 11.6133C8.45708 10.0924 9.66212 8.8069 11.126 7.87602C11.0765 7.88096 11.0267 7.8833 10.9769 7.88303C10.2549 7.88303 9.08896 7.42502 8.03296 7.42502C7.54391 7.39013 7.05878 7.53359 6.66736 7.82886C6.27594 8.12412 6.00471 8.5512 5.90393 9.03102C5.90393 9.03902 5.904 9.05002 5.896 9.05902C5.86088 9.16053 5.79497 9.24859 5.70752 9.31096C5.62007 9.37332 5.51537 9.40689 5.40796 9.40701H3.745C3.60832 9.40701 3.47723 9.35279 3.38049 9.25624C3.28375 9.15969 3.22927 9.02869 3.229 8.89201V4.76901C3.229 4.7013 3.24237 4.63425 3.26831 4.5717C3.29425 4.50915 3.3322 4.45235 3.38013 4.40451C3.42806 4.35668 3.48501 4.31876 3.54761 4.29294C3.61021 4.26712 3.67728 4.25388 3.745 4.25401H5.29102" fill="white"/>
</svg>
