<svg width="19" height="19" viewBox="0 0 19 19" fill="none" xmlns="http://www.w3.org/2000/svg">
<path d="M3.13086 6.49803C3.17303 6.38672 3.2242 6.27902 3.28386 6.17602C3.36537 6.05647 3.47649 5.96011 3.60636 5.89631C3.73623 5.83251 3.88042 5.80347 4.02486 5.81202C4.45586 5.81202 4.88686 5.81202 5.31886 5.81202H11.4259C11.6287 5.79287 11.8317 5.84786 11.9971 5.96681C12.1626 6.08575 12.2794 6.26062 12.3259 6.45902C12.3435 6.54485 12.3513 6.63243 12.3489 6.72003C12.3489 8.90469 12.3489 11.0894 12.3489 13.274C12.3596 13.3961 12.3434 13.5191 12.3014 13.6343C12.2595 13.7495 12.1928 13.854 12.106 13.9406C12.0192 14.0272 11.9145 14.0937 11.7992 14.1354C11.684 14.1771 11.5609 14.193 11.4389 14.182C8.97686 14.182 6.51453 14.182 4.05186 14.182C3.84189 14.1957 3.63392 14.1341 3.46517 14.0084C3.29642 13.8828 3.17791 13.7011 3.13086 13.496V6.49803ZM5.43086 7.49203C5.26465 7.49203 5.10522 7.55792 4.9875 7.67526C4.86979 7.7926 4.80339 7.95181 4.80286 8.11802C4.80521 8.28427 4.87257 8.443 4.99051 8.56019C5.10845 8.67738 5.2676 8.74373 5.43386 8.74502C5.60007 8.74396 5.75908 8.67706 5.87605 8.55897C5.99301 8.44088 6.05839 8.28123 6.05786 8.11501C6.05853 8.03267 6.04275 7.95104 6.01143 7.87489C5.98011 7.79873 5.93388 7.7296 5.87547 7.67156C5.81706 7.61353 5.74764 7.56775 5.67129 7.53692C5.59494 7.50609 5.51319 7.49083 5.43086 7.49203Z" fill="white"/>
<path d="M17.3808 13.0271C17.2148 13.3471 17.0418 13.41 16.7008 13.274C15.5675 12.8227 14.4375 12.3717 13.3108 11.9211C13.2715 11.912 13.237 11.8886 13.2139 11.8556C13.1908 11.8225 13.1808 11.7821 13.1858 11.742C13.1898 10.58 13.1898 9.41806 13.1858 8.25606C13.1808 8.21604 13.1908 8.17559 13.2139 8.14253C13.237 8.10947 13.2715 8.08615 13.3108 8.07706C14.4442 7.62839 15.5745 7.17738 16.7018 6.72404C17.0428 6.58804 17.2158 6.65105 17.3818 6.97105L17.3808 13.0271Z" fill="white"/>
<path d="M6.15991 5.65002C6.98834 5.65002 7.65991 4.97845 7.65991 4.15002C7.65991 3.3216 6.98834 2.65002 6.15991 2.65002C5.33148 2.65002 4.65991 3.3216 4.65991 4.15002C4.65991 4.97845 5.33148 5.65002 6.15991 5.65002Z" fill="white"/>
<path d="M8.65991 5.65002C9.2122 5.65002 9.65991 5.20231 9.65991 4.65002C9.65991 4.09774 9.2122 3.65002 8.65991 3.65002C8.10763 3.65002 7.65991 4.09774 7.65991 4.65002C7.65991 5.20231 8.10763 5.65002 8.65991 5.65002Z" fill="white"/>
</svg>
