<svg width="19" height="19" viewBox="0 0 19 19" fill="none" xmlns="http://www.w3.org/2000/svg">
<path d="M15.4549 4.319C15.4541 4.2737 15.4366 4.2303 15.4058 4.19708C15.375 4.16387 15.333 4.14319 15.2879 4.13901L12.0769 3.832C12.0483 3.82938 12.0196 3.83343 11.9929 3.84384C11.9661 3.85425 11.9422 3.87074 11.9229 3.892L10.0759 5.92599L7.96491 3.82599L4.5589 4.039C4.51965 4.04145 4.48224 4.05634 4.45203 4.08151C4.42182 4.10669 4.40042 4.14082 4.39093 4.17899L3.65491 7.12399C3.651 7.13868 3.649 7.15381 3.64893 7.16901V7.314C3.64885 7.34273 3.65549 7.37109 3.66834 7.39679C3.68119 7.42249 3.69987 7.44483 3.7229 7.46201L4.20593 7.82501C4.22924 7.84239 4.24806 7.86504 4.26093 7.89111C4.27379 7.91719 4.2803 7.94594 4.27991 7.97501L4.17993 15.08C4.17907 15.1275 4.19658 15.1734 4.22882 15.2083C4.26106 15.2431 4.30551 15.2642 4.35291 15.267L7.91992 15.479C7.95599 15.4816 7.99202 15.4734 8.0235 15.4557C8.05498 15.4379 8.08051 15.4112 8.09692 15.379L8.11792 15.335C8.12964 15.3113 8.1361 15.2854 8.1369 15.259L8.25891 10.235C8.25996 10.1993 8.2713 10.1647 8.29157 10.1354C8.31183 10.106 8.34019 10.0831 8.37317 10.0695C8.40614 10.0559 8.44233 10.0521 8.47742 10.0585C8.51251 10.065 8.54499 10.0815 8.57092 10.106L9.93793 11.414C9.95565 11.4309 9.97653 11.4441 9.99939 11.4528C10.0222 11.4615 10.0466 11.4656 10.0711 11.4649C10.0956 11.4642 10.1196 11.4586 10.1419 11.4485C10.1642 11.4383 10.1843 11.4239 10.2009 11.406L11.4539 10.06C11.4788 10.0327 11.5112 10.0136 11.5471 10.005C11.5829 9.99638 11.6205 9.99877 11.655 10.0118C11.6895 10.0249 11.7193 10.048 11.7405 10.0781C11.7617 10.1083 11.7733 10.1441 11.7739 10.181L11.9039 15.108C11.9047 15.1331 11.9105 15.1578 11.9211 15.1806C11.9317 15.2033 11.9467 15.2237 11.9655 15.2405C11.9842 15.2572 12.0061 15.27 12.0299 15.278C12.0537 15.286 12.0789 15.289 12.1039 15.287L15.4989 15.087C15.5466 15.0842 15.5913 15.063 15.6237 15.028C15.6561 14.9929 15.6738 14.9467 15.6729 14.899L15.4549 4.319Z" fill="white"/>
</svg>
