<svg width="19" height="22" viewBox="0 0 19 22" fill="none" xmlns="http://www.w3.org/2000/svg">
<path d="M17.5 0.666H1.5C0.671573 0.666 0 1.33757 0 2.166C0 2.99443 0.671573 3.666 1.5 3.666H17.5C18.3284 3.666 19 2.99443 19 2.166C19 1.33757 18.3284 0.666 17.5 0.666Z" fill="#C71095"/>
<path d="M17.5 1.666H1.5C1.22386 1.666 1 1.88986 1 2.166C1 2.44214 1.22386 2.666 1.5 2.666H17.5C17.7761 2.666 18 2.44214 18 2.166C18 1.88986 17.7761 1.666 17.5 1.666Z" stroke="white" stroke-width="2"/>
<path d="M13.5 9.666H5.5C4.67157 9.666 4 10.3376 4 11.166C4 11.9944 4.67157 12.666 5.5 12.666H13.5C14.3284 12.666 15 11.9944 15 11.166C15 10.3376 14.3284 9.666 13.5 9.666Z" fill="#C71095"/>
<path d="M13.5 10.666H5.5C5.22386 10.666 5 10.8899 5 11.166C5 11.4421 5.22386 11.666 5.5 11.666H13.5C13.7761 11.666 14 11.4421 14 11.166C14 10.8899 13.7761 10.666 13.5 10.666Z" stroke="white" stroke-width="2"/>
<path d="M17.5 18.666H1.5C0.671573 18.666 0 19.3376 0 20.166C0 20.9944 0.671573 21.666 1.5 21.666H17.5C18.3284 21.666 19 20.9944 19 20.166C19 19.3376 18.3284 18.666 17.5 18.666Z" fill="#C71095"/>
<path d="M17.5 19.666H1.5C1.22386 19.666 1 19.8899 1 20.166C1 20.4421 1.22386 20.666 1.5 20.666H17.5C17.7761 20.666 18 20.4421 18 20.166C18 19.8899 17.7761 19.666 17.5 19.666Z" stroke="white" stroke-width="2"/>
</svg>
