<svg width="19" height="19" viewBox="0 0 19 19" fill="none" xmlns="http://www.w3.org/2000/svg">
<path d="M15.2859 3.441C15.3319 3.455 15.379 3.467 15.423 3.484C15.5102 3.51184 15.5867 3.56583 15.6421 3.63864C15.6976 3.71145 15.7293 3.79955 15.7329 3.891C15.7927 4.44175 15.6356 4.99411 15.295 5.43099C15.199 5.54366 15.1056 5.65834 15.0149 5.775C14.9901 5.81282 14.9788 5.85794 14.9829 5.90299L15.3639 5.70899C15.3881 5.8072 15.3819 5.91044 15.3462 6.00506C15.3105 6.09968 15.247 6.18126 15.164 6.23901C15.123 6.27126 15.0788 6.29907 15.032 6.322C14.9 6.382 14.766 6.438 14.632 6.496C14.499 6.275 14.485 5.962 14.138 5.921C14.0579 6.0123 14.0138 6.1296 14.0139 6.251C14.0289 6.434 14.039 6.617 14.058 6.8C14.0851 7.01626 14.0546 7.23585 13.9696 7.43655C13.8846 7.63725 13.7482 7.81195 13.574 7.943L13.3899 8.093C13.5339 8.224 13.528 8.301 13.954 8.135C13.9033 8.28461 13.8425 8.43061 13.772 8.572C13.7217 8.63209 13.6499 8.67014 13.5719 8.678C13.4259 8.7 13.2719 8.696 13.1289 8.703C13.1211 8.73202 13.1195 8.76235 13.1241 8.79205C13.1286 8.82175 13.1394 8.85017 13.1555 8.87548C13.1717 8.9008 13.193 8.92246 13.218 8.93908C13.2431 8.9557 13.2713 8.96691 13.3009 8.972C13.4639 9.026 13.632 9.072 13.807 9.119C13.771 9.245 13.745 9.37001 13.701 9.48901C13.6817 9.53745 13.6519 9.58093 13.6136 9.61624C13.5752 9.65154 13.5294 9.67776 13.4795 9.69294C13.4297 9.70812 13.377 9.71188 13.3255 9.70393C13.274 9.69598 13.225 9.67651 13.182 9.647C13.024 9.54748 12.8602 9.457 12.6919 9.376C12.4679 9.27621 12.216 9.25817 11.98 9.32501C11.9555 9.33368 11.9314 9.3437 11.908 9.35501L13.168 10.075C13.151 10.105 13.138 10.127 13.125 10.151C13.0995 10.1816 13.0817 10.2179 13.0733 10.2568C13.0648 10.2957 13.0659 10.336 13.0764 10.3744C13.087 10.4128 13.1065 10.4481 13.1336 10.4773C13.1607 10.5065 13.1944 10.5287 13.232 10.542C13.2895 10.5737 13.3395 10.6176 13.3783 10.6707C13.4172 10.7237 13.444 10.7846 13.4569 10.849C13.5075 11.0302 13.5075 11.2218 13.4569 11.403C13.4509 11.4386 13.4377 11.4727 13.418 11.503C13.2409 11.7659 13.1468 12.076 13.148 12.393C13.121 12.593 13.118 12.801 13.105 13.005C13.105 13.044 13.105 13.084 13.105 13.123L13.137 13.129C13.155 13.087 13.175 13.045 13.189 13.002C13.273 12.753 13.354 12.502 13.439 12.254C13.5273 12.0132 13.6524 11.7875 13.81 11.585C13.9134 11.4425 13.9943 11.285 14.05 11.118C14.0988 11.0069 14.1084 10.8826 14.0772 10.7653C14.0459 10.6481 13.9756 10.545 13.878 10.473C14.1143 9.8091 14.4491 9.18447 14.871 8.62001L14.271 10.52L14.8939 10.293L14.922 10.321C14.76 10.838 14.622 11.365 14.43 11.87C14.238 12.375 13.9849 12.852 13.7489 13.363C13.9797 13.3115 14.1904 13.1937 14.355 13.024C14.7708 12.5283 15.0619 11.9402 15.204 11.309C15.3308 10.7333 15.3939 10.1455 15.392 9.55599C15.392 9.42599 15.41 9.296 15.419 9.166L15.458 9.16101C15.5523 9.47582 15.6302 9.79524 15.6919 10.118C15.7454 10.5159 15.7744 10.9166 15.779 11.318C15.7702 11.5289 15.7418 11.7384 15.694 11.944C15.68 12.0013 15.6549 12.0554 15.62 12.103C15.1387 12.8563 14.656 13.6087 14.172 14.36C14.161 14.377 14.148 14.392 14.127 14.419C14.102 14.308 14.083 14.21 14.055 14.119C14.0495 14.1024 14.0407 14.0872 14.029 14.0743C14.0172 14.0614 14.0029 14.0511 13.987 14.044C13.971 14.038 13.9279 14.073 13.9149 14.099C13.7649 14.388 13.62 14.679 13.47 14.968C13.394 15.114 13.312 15.256 13.232 15.4L13.205 15.393V15.139C13.205 14.862 13.205 14.584 13.205 14.307C13.2048 14.248 13.1997 14.1892 13.19 14.131C13.1831 14.0731 13.1549 14.0199 13.1107 13.9819C13.0666 13.9439 13.0098 13.9237 12.9516 13.9255C12.8933 13.9273 12.8378 13.9508 12.796 13.9914C12.7543 14.032 12.7293 14.0868 12.726 14.145C12.712 14.352 12.713 14.56 12.709 14.768C12.709 14.826 12.709 14.884 12.709 14.958L12.57 14.884C12.351 14.766 12.1369 14.635 11.9109 14.531C11.7854 14.4516 11.6345 14.4226 11.4886 14.4499C11.3426 14.4771 11.2123 14.5586 11.1239 14.678C11.0156 14.7864 10.8851 14.87 10.7412 14.923C10.5974 14.976 10.4437 14.9972 10.2909 14.985C9.76461 14.9542 9.23662 14.9693 8.71292 15.03C8.57126 15.0468 8.42767 15.0339 8.29129 14.9921C8.15491 14.9502 8.02876 14.8804 7.92093 14.787C7.85593 14.735 7.79394 14.679 7.73294 14.623C7.6498 14.535 7.5406 14.476 7.42142 14.4548C7.30223 14.4336 7.17938 14.4511 7.07095 14.505C6.83495 14.612 6.60798 14.739 6.37698 14.857L6.21695 14.941C6.21695 14.799 6.21695 14.68 6.21695 14.561C6.21875 14.3861 6.17503 14.2138 6.08999 14.061C6.04299 13.983 5.98994 13.917 5.88394 13.936C5.8368 13.9439 5.79409 13.9684 5.76346 14.0051C5.73282 14.0418 5.71629 14.0882 5.71695 14.136C5.70395 14.295 5.70293 14.454 5.69693 14.613C5.68793 14.859 5.68093 15.105 5.67093 15.351C5.67093 15.384 5.66294 15.417 5.65494 15.476C5.62694 15.423 5.609 15.394 5.595 15.364C5.395 14.956 5.19502 14.548 4.99502 14.142C4.97802 14.108 4.93796 14.086 4.90896 14.058C4.88281 14.0884 4.8606 14.122 4.84292 14.158C4.81392 14.25 4.79392 14.345 4.76492 14.458C4.73492 14.412 4.71493 14.383 4.69693 14.353C4.24593 13.594 3.79697 12.832 3.34097 12.077C3.16689 11.76 3.07998 11.4025 3.08902 11.041C3.07993 10.3939 3.22591 9.75404 3.51492 9.175C3.52376 9.16238 3.53383 9.15065 3.54495 9.13999C3.54495 9.40399 3.54495 9.65501 3.54495 9.90501C3.53315 10.5334 3.63198 11.1589 3.83694 11.753C3.99121 12.2069 4.22595 12.6293 4.52994 13C4.69709 13.1803 4.91005 13.312 5.14603 13.381C4.60324 12.4364 4.2308 11.4036 4.04593 10.33L4.55203 10.506L4.022 8.57301L4.04495 8.565C4.05795 8.587 4.07301 8.609 4.08401 8.632C4.32683 9.13426 4.60411 9.61909 4.91397 10.083C4.99297 10.201 5.05899 10.327 5.13199 10.449C5.14803 10.4712 5.15538 10.4986 5.15262 10.5259C5.14985 10.5531 5.13715 10.5784 5.11697 10.597C4.9934 10.7356 4.92035 10.912 4.90982 11.0974C4.89929 11.2828 4.95191 11.4663 5.05899 11.618C5.29545 11.9474 5.49022 12.3048 5.63895 12.682C5.70195 12.857 5.75702 13.035 5.83902 13.217C5.86606 13.0326 5.87934 12.8464 5.87894 12.66C5.85703 12.4293 5.81936 12.2005 5.76602 11.975C5.734 11.8252 5.66176 11.6869 5.55704 11.575C5.4931 11.4923 5.44917 11.3958 5.42886 11.2933C5.40856 11.1907 5.41237 11.0848 5.43997 10.984C5.46356 10.7893 5.55324 10.6086 5.694 10.472C5.72797 10.4308 5.75177 10.3822 5.76358 10.3301C5.77539 10.278 5.77487 10.2238 5.76199 10.172C5.75671 10.1438 5.76144 10.1146 5.7753 10.0894C5.78916 10.0642 5.81122 10.0446 5.83792 10.034C6.19092 9.83401 6.53797 9.634 6.89297 9.429L6.99893 9.365C6.93911 9.31633 6.86813 9.28328 6.79239 9.26879C6.71664 9.25431 6.63853 9.25885 6.56497 9.28201C6.27876 9.36594 6.00838 9.4967 5.76492 9.669C5.72055 9.70253 5.66916 9.72538 5.61453 9.73579C5.5599 9.74619 5.50357 9.74386 5.44998 9.729C5.39578 9.71496 5.34596 9.68756 5.30508 9.6493C5.26421 9.61105 5.23357 9.56315 5.21597 9.51C5.17497 9.382 5.15 9.25 5.116 9.095C5.26472 9.10292 5.41313 9.07521 5.54898 9.01416C5.68483 8.9531 5.80419 8.86048 5.897 8.744L5.54996 8.693C5.08496 8.626 5.05604 8.593 4.98404 8.107L5.46499 8.24999C5.52699 8.19299 5.52799 8.144 5.46499 8.089C5.40199 8.034 5.34699 7.96201 5.28799 7.89801C5.09678 7.69755 4.95772 7.45318 4.88309 7.1864C4.80846 6.91961 4.80057 6.63858 4.86001 6.36801C4.87946 6.21078 4.8505 6.05136 4.77701 5.91101C4.66098 5.97611 4.55342 6.05538 4.45694 6.147C4.38442 6.25942 4.32603 6.38033 4.28299 6.507C4.13899 6.441 3.98302 6.377 3.83902 6.307C3.73077 6.25856 3.64234 6.17444 3.58865 6.06869C3.53496 5.96294 3.51921 5.84199 3.54397 5.72601L3.944 5.92601L3.97098 5.90501C3.9218 5.79694 3.85826 5.69602 3.78201 5.60501C3.59909 5.4318 3.45267 5.22375 3.35135 4.99311C3.25002 4.76247 3.19575 4.51389 3.19192 4.262C3.18398 4.15486 3.1823 4.04734 3.18692 3.94C3.1883 3.83505 3.22347 3.73332 3.28702 3.64979C3.35057 3.56626 3.43917 3.50534 3.53995 3.47601C3.55518 3.46948 3.56996 3.46178 3.58401 3.453H3.77103C3.8266 3.47101 3.881 3.49239 3.93399 3.51701C4.50992 3.80807 5.12654 4.01035 5.76297 4.117C6.11327 4.21864 6.48165 4.24187 6.84195 4.18501C6.88956 4.17558 6.93767 4.16856 6.98599 4.164L7.12894 4.145C6.81219 4.35021 6.44238 4.45832 6.06497 4.456C5.71697 4.434 5.37298 4.36101 5.02798 4.31001C4.97686 4.29687 4.92346 4.29517 4.87161 4.30502C4.81976 4.31487 4.77067 4.33603 4.72793 4.367L5.548 4.749L5.53995 4.77L5.048 4.654C5.113 4.926 5.17197 5.178 5.23697 5.429C5.24297 5.452 5.28492 5.467 5.31692 5.49C5.27792 5.725 5.22995 5.973 5.19595 6.222C5.16447 6.3846 5.1727 6.5524 5.21988 6.71116C5.26705 6.86992 5.35178 7.01497 5.46695 7.134C5.74428 7.41533 6.02592 7.692 6.31192 7.964C6.51337 8.16179 6.76239 8.30437 7.03494 8.378C7.28217 8.44733 7.54369 8.44733 7.79092 8.378C7.69258 8.26257 7.57847 8.16158 7.45193 8.078C7.29517 7.99625 7.13114 7.9293 6.96194 7.878C6.62536 7.77354 6.32592 7.57467 6.09903 7.305C5.94703 7.118 5.82097 6.905 5.68497 6.705C5.53714 6.48043 5.46503 6.2145 5.47903 5.94601C5.47903 5.87501 5.49801 5.846 5.57901 5.846C5.64401 5.98 5.70896 6.117 5.77896 6.253C5.81638 6.33569 5.87732 6.40555 5.95413 6.45391C6.03094 6.50227 6.12023 6.527 6.21097 6.525C6.34597 6.525 6.48099 6.534 6.61099 6.546C6.85708 6.55109 7.09692 6.62411 7.30411 6.757C7.51129 6.88988 7.67769 7.07747 7.78494 7.29901C7.81594 7.36101 7.85192 7.42 7.88492 7.479C7.9984 7.6792 8.16043 7.84769 8.35599 7.969C8.39299 7.99 8.43298 8.006 8.47098 8.025L8.49795 8.00801C8.47195 7.86301 8.44293 7.718 8.42093 7.572C8.41829 7.55415 8.41965 7.53594 8.42483 7.51866C8.43002 7.50137 8.43893 7.48544 8.45096 7.472C8.58796 7.372 8.60901 7.294 8.50101 7.162C8.37101 7.004 8.22802 6.862 8.08902 6.708C7.99602 6.608 7.90096 6.508 7.79996 6.399C7.96709 6.34355 8.12342 6.25965 8.26199 6.151L8.25198 6.11801H7.10599C7.45552 6.02667 7.79336 5.89547 8.11294 5.727C8.01129 5.66086 7.89845 5.61377 7.77994 5.58801C7.51294 5.55601 7.24303 5.54601 6.97403 5.53201C6.79803 5.52301 6.621 5.52701 6.444 5.51901C6.40822 5.50968 6.37439 5.4941 6.34402 5.473C6.37302 5.451 6.39904 5.418 6.43204 5.408C6.54804 5.373 6.66596 5.346 6.78396 5.317C7.33563 5.19704 7.87367 5.02149 8.38992 4.79301C8.43092 4.77401 8.46894 4.749 8.50894 4.727L8.50101 4.70401H7.04703C7.24536 4.58471 7.44956 4.47557 7.65896 4.37701C7.9448 4.24152 8.25881 4.17603 8.57498 4.186C9.12898 4.194 9.68394 4.177 10.2379 4.177C10.3971 4.17531 10.556 4.18769 10.7129 4.214C11.1139 4.30969 11.4985 4.46438 11.854 4.673C11.854 4.673 11.854 4.685 11.854 4.703H10.413C11.097 5.02046 11.8078 5.2768 12.537 5.469C12.3859 5.49557 12.2332 5.51227 12.08 5.51901C11.859 5.52901 11.6359 5.52701 11.4149 5.54301C11.1749 5.5582 10.9432 5.63725 10.7439 5.772C10.8076 5.83023 10.8786 5.87998 10.955 5.92001C11.0887 5.96446 11.2259 5.9979 11.365 6.02C11.509 6.046 11.656 6.05701 11.802 6.07501C11.802 6.08701 11.802 6.09999 11.802 6.11199H10.6649L10.6499 6.14801L11.1079 6.413L11.008 6.52C10.819 6.72 10.6249 6.92001 10.4409 7.12901C10.3139 7.27201 10.3319 7.368 10.4879 7.468L10.5149 7.48699L10.422 8.03201C10.4418 8.02553 10.4612 8.01784 10.48 8.009C10.7803 7.81359 11.0221 7.54063 11.18 7.219C11.2485 7.07042 11.3498 6.93926 11.4762 6.83535C11.6026 6.73145 11.7509 6.65749 11.9099 6.619C12.1499 6.5676 12.3938 6.53649 12.6389 6.526C12.7645 6.53302 12.8887 6.49731 12.9914 6.42466C13.094 6.35202 13.1689 6.24673 13.204 6.126C13.245 6.026 13.304 5.926 13.359 5.804C13.403 5.90081 13.4265 6.00565 13.4283 6.11196C13.43 6.21828 13.4097 6.32382 13.3689 6.42201C13.1789 6.96828 12.7936 7.42494 12.287 7.70401C12.0568 7.8231 11.8193 7.92764 11.576 8.01701C11.4232 8.08309 11.2852 8.17896 11.17 8.29901C11.3285 8.37569 11.5042 8.41012 11.68 8.399C11.9731 8.34995 12.2537 8.24364 12.5058 8.08613C12.7578 7.92862 12.9764 7.72299 13.149 7.481C13.2263 7.37061 13.3112 7.2657 13.403 7.167C13.5887 6.96914 13.7078 6.71811 13.7437 6.44911C13.7795 6.18011 13.7303 5.90662 13.6029 5.667C13.5359 5.544 13.5539 5.48001 13.6869 5.43701C13.7134 5.43129 13.7369 5.41619 13.7531 5.3945C13.7693 5.3728 13.777 5.34598 13.7749 5.319C13.7819 5.205 13.798 5.09201 13.808 4.97801C13.818 4.86401 13.8239 4.77001 13.8319 4.65901L13.35 4.843C13.5933 4.61268 13.8931 4.45056 14.219 4.373C13.9993 4.27603 13.757 4.24144 13.5189 4.27301C13.2419 4.31501 12.9649 4.35901 12.6869 4.39801C12.404 4.41568 12.1248 4.32605 11.9049 4.147C12.557 4.23749 13.2213 4.17343 13.844 3.96C14.296 3.809 14.7359 3.62401 15.1809 3.45401L15.2859 3.441ZM9.47403 14.274C9.49803 14.44 9.57404 14.551 9.73404 14.567C10.1711 14.6289 10.6152 14.5235 10.9779 14.272C11.0509 14.22 11.1009 14.172 11.0669 14.072C11.0561 14.0282 11.0531 13.9828 11.058 13.938C11.058 13.799 11.128 13.746 11.267 13.771C11.4076 13.7949 11.5382 13.8592 11.643 13.956C11.759 14.062 11.884 14.156 12.028 14.277C12.02 14.229 12.0189 14.212 12.0139 14.197C11.9148 13.8503 11.727 13.5354 11.469 13.2835C11.2111 13.0315 10.8919 12.8511 10.543 12.76C10.005 12.6211 9.4456 12.5841 8.89395 12.651C8.44619 12.687 8.01628 12.8424 7.64895 13.101C7.32958 13.3159 7.09654 13.6368 6.991 14.007C6.971 14.08 6.96396 14.157 6.95096 14.232L6.97903 14.242L7.17203 14.028C7.28886 13.8982 7.44334 13.8083 7.61392 13.771C7.74592 13.741 7.81399 13.8 7.81399 13.932C7.81399 14.032 7.80899 14.126 7.81399 14.223C7.8146 14.2409 7.81894 14.2585 7.82669 14.2747C7.83443 14.2909 7.84546 14.3053 7.85904 14.317C8.18987 14.5245 8.57582 14.6266 8.96597 14.61C9.07583 14.6178 9.18515 14.589 9.27701 14.5283C9.36886 14.4675 9.43818 14.3781 9.47403 14.274ZM11.1609 8.749L11.1139 8.76C11.0993 8.94414 11.1014 9.12922 11.12 9.313C11.1513 9.4423 11.1479 9.57755 11.1104 9.70516C11.0728 9.83278 11.0024 9.94826 10.906 10.04C10.6317 10.3449 10.2923 10.5841 9.91299 10.74C9.83227 10.7641 9.76197 10.8148 9.71353 10.8837C9.66509 10.9526 9.64137 11.0359 9.64603 11.12C9.64603 11.252 9.64603 11.383 9.64603 11.515C9.64196 11.5833 9.66072 11.6509 9.69949 11.7073C9.73826 11.7636 9.7948 11.8054 9.86001 11.826C10.297 11.991 10.733 12.157 11.172 12.319C11.2429 12.3484 11.3193 12.3617 11.3959 12.3579C11.4725 12.3541 11.5474 12.3333 11.615 12.297C11.7748 12.2144 11.93 12.1233 12.08 12.024C12.1521 11.9565 12.2149 11.8799 12.267 11.796C11.9582 11.7845 11.6538 11.7199 11.367 11.605C11.717 11.505 12.1 11.514 12.267 11.115C12.234 11.121 12.21 11.123 12.188 11.129C11.888 11.202 11.588 11.277 11.288 11.348C11.2565 11.3522 11.2245 11.3522 11.193 11.348C11.209 11.318 11.2179 11.277 11.2429 11.26C11.3789 11.171 11.523 11.094 11.656 11.001C11.788 10.9126 11.9115 10.8122 12.0249 10.701C12.0749 10.644 12.1131 10.5775 12.1371 10.5056C12.1612 10.4337 12.1706 10.3576 12.1649 10.282L12.0089 10.401C11.8859 10.501 11.7689 10.601 11.6389 10.685C11.5551 10.7411 11.4597 10.7776 11.3599 10.792C11.26 10.8064 11.1582 10.7982 11.0619 10.768L12.048 9.968C12.008 9.951 11.984 9.93999 11.959 9.93099C11.8583 9.89608 11.7703 9.8316 11.7068 9.74597C11.6433 9.66033 11.6071 9.55753 11.6029 9.451C11.6001 9.37823 11.5925 9.30574 11.58 9.234C11.568 9.16364 11.5389 9.09732 11.495 9.041C11.395 8.933 11.2739 8.845 11.1609 8.749ZM7.86099 8.749C7.7794 8.74038 7.69706 8.75519 7.62356 8.79167C7.55007 8.82815 7.48842 8.88479 7.44595 8.955C7.39465 9.03347 7.35948 9.12133 7.34231 9.2135C7.32515 9.30566 7.32636 9.40032 7.34598 9.492C7.38998 9.708 7.33699 9.792 7.13199 9.88L7.07193 9.908L7.81692 10.789C7.64675 10.8305 7.46708 10.8032 7.31692 10.713C7.18992 10.637 7.07496 10.54 6.95596 10.452L6.70193 10.264C6.69289 10.3055 6.69507 10.3486 6.70804 10.389C6.78348 10.6224 6.94367 10.819 7.15701 10.94C7.32901 11.05 7.50298 11.157 7.67398 11.268C7.70197 11.2914 7.72681 11.3183 7.74795 11.348L7.72903 11.38L6.62894 11.109C6.67016 11.199 6.73111 11.2785 6.80728 11.3417C6.88345 11.4049 6.97296 11.4501 7.069 11.474C7.186 11.505 7.30693 11.519 7.42593 11.54C7.59532 11.5523 7.75769 11.6126 7.89395 11.714C7.81854 11.7482 7.74149 11.7786 7.66299 11.805C7.46202 11.847 7.25411 11.8429 7.05496 11.793C6.99386 11.7728 6.92887 11.7674 6.86526 11.7771C6.80165 11.7868 6.74126 11.8115 6.68899 11.849C6.68899 11.862 6.69693 11.875 6.70193 11.888C6.77393 12.061 6.93997 12.124 7.08597 12.204C7.20378 12.2746 7.33604 12.3177 7.47281 12.3302C7.60958 12.3426 7.74738 12.3241 7.87601 12.276C8.27601 12.1273 8.67899 11.9813 9.08499 11.838C9.16084 11.8165 9.227 11.7696 9.27249 11.7051C9.31798 11.6407 9.34005 11.5627 9.33499 11.484C9.33499 11.384 9.32598 11.29 9.32999 11.193C9.34199 10.9 9.27902 10.808 8.99502 10.717C8.60007 10.5987 8.25363 10.3564 8.00699 10.026C7.92048 9.91718 7.85688 9.79197 7.8201 9.65791C7.78332 9.52385 7.77413 9.38372 7.793 9.246C7.813 9.079 7.83296 8.91901 7.85696 8.74501L7.86099 8.749ZM8.41299 9.188C8.33183 9.22359 8.26653 9.2878 8.22964 9.36839C8.19276 9.44898 8.1868 9.5403 8.21292 9.62499C8.23792 9.76599 8.32401 9.847 8.50601 9.872C9.15091 9.93534 9.80015 9.94036 10.446 9.887C10.5213 9.88473 10.5933 9.85519 10.6485 9.80387C10.7036 9.75256 10.7383 9.68295 10.746 9.608C10.7343 9.4463 10.6651 9.29413 10.5509 9.179C10.5412 9.19427 10.5335 9.21075 10.528 9.22801C10.515 9.33555 10.464 9.43491 10.3843 9.50823C10.3046 9.58156 10.2012 9.62402 10.0929 9.628C9.71389 9.69721 9.3261 9.70363 8.94498 9.647C8.68098 9.608 8.42796 9.538 8.40896 9.184L8.41299 9.188ZM6.70694 7.288C6.70694 7.333 6.70695 7.378 6.71695 7.423C6.72198 7.47381 6.73819 7.5229 6.76431 7.56677C6.79044 7.61064 6.82592 7.64821 6.86819 7.67684C6.91047 7.70548 6.95851 7.72446 7.00894 7.73243C7.05937 7.74041 7.11089 7.73719 7.15994 7.723C7.21897 7.69703 7.27155 7.65825 7.31375 7.60948C7.35595 7.5607 7.38674 7.50316 7.40396 7.441C7.40736 7.42033 7.40644 7.39918 7.40127 7.37887C7.39611 7.35856 7.38679 7.33955 7.37393 7.32301C7.26902 7.20639 7.13307 7.12208 6.98196 7.08C6.73596 6.996 6.68901 7.031 6.70401 7.288H6.70694ZM12.122 7.076C12.0244 7.06681 11.9259 7.07847 11.8332 7.11019C11.7404 7.14191 11.6555 7.19298 11.584 7.26C11.5516 7.28401 11.5248 7.31484 11.5056 7.35034C11.4865 7.38583 11.4753 7.4251 11.4731 7.46537C11.4708 7.50564 11.4774 7.54593 11.4925 7.58337C11.5075 7.62081 11.5305 7.65448 11.56 7.682C11.5875 7.71784 11.6255 7.74416 11.6687 7.75726C11.712 7.77035 11.7582 7.76956 11.8009 7.755C11.8695 7.73644 11.9334 7.70317 11.9878 7.65751C12.0423 7.61185 12.0861 7.55489 12.1164 7.49058C12.1466 7.42627 12.1625 7.35615 12.163 7.28507C12.1634 7.214 12.1484 7.14369 12.1189 7.07901L12.122 7.076Z" fill="white"/>
</svg>
