<svg width="19" height="19" viewBox="0 0 19 19" fill="none" xmlns="http://www.w3.org/2000/svg">
<path d="M12.467 15.962C12.3838 15.9595 12.3016 15.9444 12.223 15.917L8.461 14.693L5.135 13.612L4.707 13.473L4.543 13.423C4.648 13.109 4.734 12.846 4.813 12.594C4.85243 12.4907 4.84931 12.376 4.80433 12.2749C4.75935 12.1739 4.67617 12.0948 4.573 12.055C4.52046 12.0328 4.46404 12.0212 4.407 12.021C4.31714 12.0222 4.22997 12.0518 4.15807 12.1058C4.08618 12.1597 4.03328 12.2351 4.007 12.321C3.907 12.613 3.814 12.904 3.734 13.154C3.679 13.134 3.634 13.121 3.586 13.108C3.074 12.94 2.55967 12.7733 2.043 12.608C1.97696 12.5972 1.9143 12.5713 1.85983 12.5324C1.80537 12.4935 1.76057 12.4427 1.72887 12.3837C1.69718 12.3248 1.67945 12.2594 1.67704 12.1925C1.67464 12.1256 1.68762 12.0591 1.715 11.998C1.7787 11.7665 1.75549 11.5197 1.64975 11.3042C1.54401 11.0887 1.36305 10.9193 1.141 10.828C1.03659 10.7995 0.943286 10.74 0.87346 10.6573C0.803634 10.5747 0.760579 10.4727 0.75 10.365L2.574 4.742C2.6233 4.6865 2.68383 4.64211 2.75159 4.61177C2.81934 4.58143 2.89276 4.56583 2.967 4.566C3.03462 4.56718 3.10183 4.57692 3.167 4.595C3.24459 4.61604 3.32461 4.6268 3.405 4.627C3.60535 4.62386 3.80004 4.56006 3.96339 4.44402C4.12674 4.32798 4.25108 4.16515 4.32 3.977C4.34207 3.88505 4.39398 3.80299 4.46761 3.74365C4.54124 3.68431 4.63245 3.65103 4.727 3.649C4.795 3.65021 4.86242 3.66167 4.927 3.683L5.711 3.939L6.004 4.039L6.498 4.2L6.629 4.242L6.578 4.395C6.545 4.503 6.51 4.608 6.478 4.712C6.437 4.837 6.398 4.96 6.359 5.083C6.32898 5.18362 6.33682 5.29174 6.38103 5.38698C6.42524 5.48222 6.50277 5.55799 6.599 5.6C6.65337 5.62321 6.71189 5.63512 6.771 5.635C6.84589 5.63508 6.91944 5.61509 6.98399 5.5771C7.04853 5.53911 7.10171 5.48452 7.138 5.419C7.15465 5.38671 7.16902 5.3533 7.181 5.319C7.18876 5.30129 7.19479 5.28287 7.199 5.264C7.258 5.098 7.312 4.926 7.371 4.749C7.383 4.711 7.394 4.672 7.408 4.634L7.45 4.503L7.592 4.549L10.85 5.607H10.86C12.29 6.07367 13.7197 6.54034 15.149 7.007C15.2154 7.01708 15.2786 7.04248 15.3335 7.08119C15.3884 7.1199 15.4336 7.17086 15.4654 7.23004C15.4972 7.28922 15.5149 7.35499 15.5169 7.42216C15.5189 7.48932 15.5052 7.55603 15.477 7.617C15.4165 7.84791 15.441 8.09289 15.5463 8.30717C15.6515 8.52144 15.8303 8.6907 16.05 8.784C16.154 8.8136 16.2468 8.87339 16.3168 8.95582C16.3868 9.03825 16.4307 9.13959 16.443 9.247L14.613 14.87C14.5645 14.9254 14.5047 14.9698 14.4376 15.0001C14.3705 15.0305 14.2976 15.0461 14.224 15.046C14.1564 15.045 14.0891 15.0352 14.024 15.017C13.947 14.9965 13.8677 14.9861 13.788 14.986C13.592 14.9889 13.4012 15.0497 13.2396 15.1607C13.0781 15.2717 12.9529 15.428 12.88 15.61C12.779 15.857 12.656 15.962 12.467 15.962ZM9.82 9.255C9.66 11.109 10.09 12.595 11 13.334C10.99 11.359 10.803 10.124 9.82 9.255ZM9.32 11.255C9.25002 11.6137 9.26708 11.984 9.36973 12.3348C9.47239 12.6856 9.65766 13.0066 9.91 13.271C9.9 12.267 9.809 11.679 9.324 11.257L9.32 11.255ZM5.291 9.29C5.19882 9.29285 5.11004 9.32546 5.03793 9.38296C4.96583 9.44046 4.91428 9.51976 4.891 9.609C4.778 9.945 4.676 10.254 4.591 10.526C4.57127 10.5823 4.56288 10.6419 4.56631 10.7015C4.56975 10.7611 4.58493 10.8193 4.611 10.873C4.66483 10.9732 4.75616 11.048 4.865 11.081C4.90734 11.0946 4.95152 11.1017 4.996 11.102C5.08735 11.1005 5.17574 11.0693 5.24787 11.0132C5.32 10.9571 5.37198 10.8792 5.396 10.791C5.429 10.699 5.459 10.608 5.49 10.513L5.513 10.445L5.55 10.332C5.599 10.189 5.644 10.043 5.696 9.874C5.71794 9.82043 5.72857 9.7629 5.72722 9.70502C5.72588 9.64715 5.71258 9.59017 5.68816 9.53768C5.66375 9.48519 5.62874 9.43831 5.58535 9.39999C5.54196 9.36167 5.49111 9.33274 5.436 9.315C5.38939 9.29868 5.34039 9.29023 5.291 9.29ZM10.801 8.249C10.7299 8.60709 10.746 8.97703 10.848 9.32757C10.95 9.67811 11.1349 9.99895 11.387 10.263C11.381 9.296 11.289 8.686 10.801 8.249ZM6.184 6.549C6.09426 6.55062 6.0073 6.58048 5.9355 6.63433C5.86369 6.68819 5.81068 6.7633 5.784 6.849C5.712 7.063 5.643 7.282 5.575 7.493L5.55 7.567L5.474 7.804C5.43749 7.91385 5.44502 8.03359 5.495 8.138C5.54879 8.23926 5.64047 8.31511 5.75 8.349C5.79424 8.36345 5.84046 8.37088 5.887 8.371C5.97859 8.36881 6.06715 8.33776 6.14006 8.28228C6.21296 8.22679 6.26649 8.1497 6.293 8.062C6.318 7.986 6.344 7.909 6.367 7.833C6.39 7.757 6.414 7.68 6.439 7.604C6.447 7.576 6.457 7.548 6.466 7.52C6.475 7.492 6.487 7.453 6.499 7.42L6.511 7.383C6.54 7.297 6.57 7.207 6.595 7.121C6.61298 7.0679 6.62024 7.01176 6.61638 6.95582C6.61251 6.89989 6.59759 6.84528 6.57248 6.79516C6.54737 6.74503 6.51257 6.70038 6.47009 6.66379C6.42761 6.6272 6.37829 6.59941 6.325 6.582C6.27961 6.56642 6.23199 6.55831 6.184 6.558V6.549Z" fill="white"/>
</svg>
