<svg width="19" height="20" viewBox="0 0 19 20" fill="none" xmlns="http://www.w3.org/2000/svg">
<path d="M18.65 3.43698C18.596 3.58555 18.4926 3.71113 18.3572 3.79282C18.2219 3.87451 18.0627 3.9074 17.906 3.88599C16.917 3.86999 15.928 3.88599 14.94 3.87799C14.814 3.87799 14.751 3.90296 14.714 4.03796C14.5576 4.60867 14.218 5.1122 13.7476 5.4711C13.2771 5.83 12.7017 6.02441 12.11 6.02441C11.5182 6.02441 10.9429 5.83 10.4724 5.4711C10.0019 5.1122 9.66237 4.60867 9.50598 4.03796C9.46498 3.89296 9.394 3.87299 9.263 3.87299C6.418 3.87299 3.57199 3.87297 0.72699 3.87997C0.573197 3.89805 0.417792 3.86364 0.286011 3.78232C0.15423 3.701 0.0537893 3.57754 0.000976562 3.43198V3.14099C0.0650914 2.99393 0.175527 2.87183 0.31543 2.7933C0.455333 2.71478 0.617064 2.68409 0.776001 2.70596C3.589 2.71396 6.403 2.70596 9.216 2.70596H9.45001C9.47001 2.64596 9.48602 2.60597 9.49902 2.55597C9.5889 2.2147 9.7479 1.89555 9.96619 1.61826C10.1845 1.34097 10.4574 1.11145 10.768 0.94397C11.0791 0.801329 11.4003 0.682005 11.729 0.586975H12.458C12.4855 0.598839 12.514 0.608527 12.543 0.615967C12.9925 0.686461 13.4166 0.870376 13.7753 1.15033C14.134 1.43028 14.4155 1.79704 14.593 2.21597C14.666 2.37297 14.712 2.54197 14.773 2.71097H14.98C15.945 2.71097 16.91 2.72096 17.875 2.70596C18.0342 2.68444 18.196 2.71537 18.336 2.79404C18.476 2.87271 18.5866 2.99484 18.651 3.14197L18.65 3.43698ZM12.105 1.75598C11.6947 1.75532 11.301 1.91766 11.0104 2.20731C10.7198 2.49696 10.5561 2.89019 10.5555 3.30048C10.5548 3.71077 10.7172 4.10452 11.0068 4.39511C11.2965 4.6857 11.6897 4.84931 12.1 4.84998C12.3031 4.8503 12.5044 4.81063 12.6922 4.73318C12.88 4.65574 13.0508 4.54207 13.1946 4.39865C13.3385 4.25523 13.4527 4.08487 13.5308 3.89731C13.6088 3.70974 13.6491 3.50864 13.6495 3.30548C13.6498 3.10233 13.6102 2.9011 13.5327 2.71329C13.4553 2.52547 13.3416 2.35473 13.1982 2.21085C13.0548 2.06696 12.8844 1.95274 12.6968 1.87469C12.5093 1.79665 12.3081 1.75631 12.105 1.75598Z" fill="#0378C2"/>
<path d="M0 16.4049C0.0520072 16.259 0.152164 16.1352 0.283936 16.0538C0.415707 15.9724 0.571216 15.9382 0.724976 15.9569C3.56398 15.9649 6.40398 15.957 9.24298 15.965C9.40298 15.965 9.468 15.926 9.513 15.765C9.67791 15.2017 10.0215 14.7073 10.4919 14.3564C10.9623 14.0055 11.534 13.817 12.1209 13.8194C12.7078 13.8217 13.278 14.0149 13.7455 14.3696C14.2131 14.7243 14.5527 15.2214 14.713 15.786C14.751 15.923 14.802 15.966 14.943 15.965C15.932 15.959 16.921 15.972 17.91 15.956C18.0666 15.9347 18.2258 15.9677 18.3611 16.0493C18.4965 16.131 18.5998 16.2565 18.654 16.4049V16.6959C18.5894 16.8429 18.4788 16.9648 18.3388 17.0433C18.1988 17.1218 18.037 17.1525 17.878 17.1309C16.907 17.1159 15.936 17.1309 14.965 17.1309H14.77C14.751 17.1869 14.736 17.2309 14.724 17.2669C14.6254 17.641 14.4455 17.9888 14.1971 18.2854C13.9487 18.582 13.6379 18.8201 13.287 18.9829C13.0185 19.091 12.7428 19.1802 12.462 19.25H11.733C11.7006 19.236 11.6672 19.2247 11.633 19.216C11.1168 19.1235 10.6386 18.8827 10.257 18.523C9.85797 18.1488 9.57941 17.6641 9.45697 17.1309H9.21802C6.40502 17.1309 3.59202 17.1309 0.778015 17.1309C0.619087 17.1515 0.457724 17.1204 0.317932 17.042C0.17814 16.9637 0.0673691 16.8423 0.00201416 16.6959L0 16.4049ZM12.107 18.086C12.4129 18.0864 12.7121 17.9961 12.9667 17.8264C13.2213 17.6568 13.4199 17.4155 13.5374 17.133C13.6548 16.8506 13.6859 16.5396 13.6267 16.2395C13.5675 15.9393 13.4206 15.6635 13.2047 15.4469C12.9887 15.2302 12.7133 15.0824 12.4134 15.0222C12.1134 14.962 11.8024 14.9921 11.5195 15.1087C11.2367 15.2252 10.9948 15.423 10.8243 15.6771C10.6539 15.9311 10.5626 16.23 10.562 16.536C10.5617 16.9463 10.7243 17.3399 11.0139 17.6305C11.3036 17.9211 11.6967 18.0849 12.107 18.086Z" fill="#0378C2"/>
<path d="M-6.10352e-05 9.77497C0.057616 9.62789 0.162981 9.50439 0.299133 9.42426C0.435285 9.34413 0.594332 9.31198 0.750916 9.33295C1.72792 9.34795 2.70495 9.33796 3.68195 9.33796H3.88892C4.04155 8.65926 4.44753 8.06444 5.02393 7.67496C5.47809 7.36462 6.01693 7.20189 6.56696 7.20896C7.18118 7.21818 7.77454 7.43332 8.25195 7.81989C8.72936 8.20646 9.06319 8.74207 9.19995 9.34095H9.41095C12.2389 9.34095 15.067 9.34098 17.895 9.33598C18.0513 9.31659 18.2098 9.3494 18.3456 9.42933C18.4814 9.50926 18.587 9.63182 18.6459 9.77796V10.069C18.5868 10.215 18.4812 10.3375 18.3454 10.4174C18.2096 10.4973 18.0513 10.5302 17.895 10.511C15.067 10.502 12.2399 10.506 9.41193 10.506H9.19995C9.06395 11.1108 8.72609 11.6514 8.242 12.0387C7.75792 12.4261 7.15641 12.6371 6.53644 12.6371C5.91647 12.6371 5.31496 12.4261 4.83087 12.0387C4.34678 11.6514 4.00893 11.1108 3.87292 10.506H2.47296C1.89696 10.506 1.31996 10.492 0.743958 10.506C0.58709 10.5283 0.427248 10.4967 0.290649 10.4164C0.154051 10.3361 0.0487638 10.2119 -0.00805664 10.064L-6.10352e-05 9.77497ZM6.51697 11.4659C6.82211 11.4702 7.12165 11.3841 7.37787 11.2183C7.63409 11.0525 7.83551 10.8146 7.95667 10.5345C8.07782 10.2544 8.11329 9.94472 8.05865 9.64448C8.00402 9.34424 7.86166 9.06693 7.6496 8.84748C7.43753 8.62803 7.16526 8.47629 6.86707 8.41141C6.56887 8.34654 6.25813 8.37144 5.97406 8.48295C5.68999 8.59446 5.44531 8.7876 5.27087 9.038C5.09644 9.2884 5.00011 9.58485 4.99396 9.88996C4.98998 10.0936 5.02623 10.296 5.10071 10.4855C5.17518 10.6751 5.2864 10.848 5.42792 10.9945C5.56944 11.1409 5.73853 11.258 5.92542 11.3389C6.1123 11.4198 6.31334 11.463 6.51697 11.4659Z" fill="#0378C2"/>
</svg>
