<svg width="19" height="19" viewBox="0 0 19 19" fill="none" xmlns="http://www.w3.org/2000/svg">
<path opacity="0.01" d="M9.65991 18.65C14.6305 18.65 18.6599 14.6206 18.6599 9.65002C18.6599 4.67946 14.6305 0.650024 9.65991 0.650024C4.68935 0.650024 0.659912 4.67946 0.659912 9.65002C0.659912 14.6206 4.68935 18.65 9.65991 18.65Z" fill="white"/>
<path d="M13.1258 2.414H14.6358C14.4011 2.65067 14.1678 2.88767 13.9358 3.125C13.4046 3.64293 12.9846 4.26367 12.7012 4.94933C12.4179 5.63498 12.2772 6.37118 12.2878 7.113C12.2878 7.83833 12.2878 8.56367 12.2878 9.289V9.446C12.3198 9.454 12.3378 9.461 12.3558 9.464C13.2349 9.5734 14.0505 9.9788 14.6685 10.6135C15.2864 11.2482 15.6699 12.0743 15.7558 12.956C15.8377 13.8269 15.6281 14.7003 15.1599 15.4391C14.6916 16.1779 13.9913 16.7403 13.1688 17.038C12.8399 17.1346 12.5061 17.2137 12.1688 17.275H11.5298C11.4971 17.2646 11.4637 17.2566 11.4298 17.251C10.533 17.1494 9.69825 16.7433 9.06475 16.1005C8.43124 15.4578 8.03735 14.6171 7.94881 13.719C7.85956 12.8374 8.07467 11.9518 8.55839 11.2094C9.04211 10.467 9.76531 9.91249 10.6078 9.638C10.8678 9.554 11.1378 9.501 11.4178 9.43V9.284C11.4178 8.51 11.4098 7.736 11.4178 6.962C11.4278 5.72585 11.8032 4.52028 12.4968 3.497C12.5208 3.461 12.5438 3.423 12.5768 3.373C11.1098 3.6095 9.76731 4.33944 8.77128 5.4422C7.77525 6.54496 7.18526 7.95453 7.09881 9.438C7.58677 9.50751 8.05787 9.66578 8.48881 9.905C7.57808 10.8162 7.06647 12.0517 7.06647 13.34C7.06647 14.6283 7.57808 15.8638 8.48881 16.775C8.18997 16.9446 7.86933 17.0724 7.53581 17.155C7.33581 17.203 7.14081 17.235 6.94281 17.274H6.30381C6.27109 17.2636 6.23767 17.2556 6.20381 17.25C5.27497 17.1434 4.41389 16.7113 3.77323 16.0303C3.13257 15.3494 2.7537 14.4636 2.70381 13.53C2.65546 12.5509 2.97715 11.5894 3.605 10.8365C4.23285 10.0836 5.12091 9.59435 6.09281 9.466C6.18581 9.454 6.20981 9.418 6.21481 9.329C6.25265 8.66226 6.38532 8.00431 6.60881 7.375C6.72881 7.041 6.87381 6.716 7.00881 6.388C7.00881 6.388 6.99681 6.382 6.98981 6.388C6.95381 6.40133 6.91814 6.41567 6.88281 6.431C6.45008 6.62684 5.98424 6.73914 5.50981 6.762C4.80474 6.76463 4.10809 6.60882 3.47131 6.3061C2.83453 6.00337 2.27389 5.56146 1.83081 5.013C2.11681 4.756 2.38381 4.488 2.67881 4.258C3.40071 3.66115 4.29971 3.31977 5.23581 3.287C6.18235 3.28075 7.10334 3.59397 7.84981 4.176C8.02381 4.303 8.18681 4.446 8.34981 4.576C8.35959 4.57036 8.36895 4.56401 8.37781 4.557L8.46181 4.477C9.52474 3.44663 10.8758 2.76377 12.3358 2.519C12.6048 2.48 12.8678 2.45 13.1258 2.414ZM4.45381 13.319H5.31381C5.32018 12.974 5.4608 12.645 5.70581 12.402C5.94913 12.1639 6.27351 12.0268 6.61381 12.018V11.162C6.33068 11.1621 6.05035 11.218 5.78882 11.3265C5.52729 11.435 5.28969 11.5939 5.08958 11.7942C4.88947 11.9945 4.73077 12.2322 4.62254 12.4939C4.51432 12.7555 4.45868 13.0359 4.45881 13.319H4.45381ZM10.5298 13.319C10.5377 12.9743 10.6779 12.6458 10.9214 12.4017C11.165 12.1576 11.4931 12.0166 11.8378 12.008V11.155C11.5542 11.1553 11.2734 11.2115 11.0115 11.3205C10.7496 11.4294 10.5118 11.589 10.3117 11.79C10.1117 11.991 9.95319 12.2296 9.84543 12.4919C9.73768 12.7543 9.68276 13.0354 9.68381 13.319H10.5298Z" fill="white"/>
</svg>
