<svg width="19" height="19" viewBox="0 0 19 19" fill="none" xmlns="http://www.w3.org/2000/svg">
<path d="M6.71991 16.763H6.35791C6.34691 16.755 6.33691 16.743 6.32491 16.74C6.10791 16.6962 5.90868 16.5893 5.75214 16.4328C5.59561 16.2762 5.48873 16.077 5.44491 15.86C4.79357 13.424 4.14057 10.9883 3.48591 8.55299C3.36991 8.12199 3.24791 7.69199 3.12891 7.26199V6.90098C3.13491 6.89398 3.14491 6.88898 3.14691 6.88098C3.19368 6.65595 3.30664 6.45005 3.47128 6.28968C3.63592 6.12932 3.84473 6.02182 4.07091 5.98098C5.77091 5.53498 7.46091 5.08098 9.15491 4.62298C9.30369 4.57204 9.46163 4.55335 9.6182 4.56816C9.77477 4.58297 9.92639 4.63094 10.063 4.70889C10.1996 4.78684 10.318 4.89297 10.4104 5.02023C10.5028 5.14749 10.5671 5.29297 10.5989 5.44699C11.3576 8.26299 12.1142 11.0793 12.8689 13.896C12.9195 14.0449 12.9377 14.203 12.9224 14.3595C12.9072 14.5161 12.8587 14.6676 12.7802 14.8039C12.7018 14.9403 12.5952 15.0583 12.4675 15.1503C12.3399 15.2422 12.1941 15.3058 12.0399 15.337C10.7079 15.697 9.37491 16.05 8.03991 16.407C7.60091 16.525 7.15991 16.643 6.71991 16.763ZM7.53091 8.34698C7.45909 8.33879 7.38666 8.35587 7.32607 8.39529C7.26549 8.43471 7.22052 8.49401 7.19891 8.56298C6.93224 9.34632 6.66757 10.13 6.40491 10.914C6.38141 10.9725 6.37748 11.037 6.3937 11.098C6.40992 11.1589 6.44543 11.2129 6.49491 11.252C7.11757 11.8 7.74091 12.347 8.36491 12.893C8.40098 12.9302 8.44638 12.9571 8.49637 12.9708C8.54636 12.9846 8.59912 12.9846 8.64915 12.9711C8.69918 12.9575 8.74466 12.9307 8.78085 12.8936C8.81703 12.8565 8.84261 12.8104 8.85491 12.76C9.12291 11.978 9.38491 11.193 9.64991 10.41C9.6734 10.3515 9.67734 10.2869 9.66111 10.226C9.64489 10.1651 9.60939 10.1111 9.55991 10.072C8.93724 9.52399 8.31391 8.97732 7.68991 8.43199C7.64042 8.39636 7.58624 8.36775 7.52891 8.34698H7.53091Z" fill="white"/>
<path d="M17.38 4.76101C17.315 5.10501 17.247 5.44901 17.186 5.79401C16.884 7.49734 16.584 9.20034 16.286 10.903C16.134 11.7637 15.9813 12.6243 15.828 13.485C15.8088 13.6302 15.7608 13.7701 15.6868 13.8964C15.6129 14.0228 15.5144 14.1332 15.3973 14.221C15.2801 14.3088 15.1466 14.3724 15.0045 14.4079C14.8624 14.4435 14.7147 14.4503 14.57 14.428C14.304 14.397 14.041 14.339 13.8 14.298C13.565 13.083 13.186 11.922 12.89 10.74C12.855 10.601 12.767 10.44 12.804 10.329C12.841 10.218 13.004 10.158 13.118 10.076C13.6635 9.69679 14.133 9.2185 14.502 8.66601C14.6821 8.39424 14.8031 8.08759 14.857 7.76601C14.889 7.55863 14.855 7.34643 14.7597 7.15946C14.6645 6.97249 14.5128 6.82022 14.3262 6.72422C14.1396 6.62821 13.9276 6.59333 13.7201 6.62452C13.5125 6.65571 13.3201 6.7514 13.17 6.89801C13.1411 6.92974 13.114 6.96313 13.089 6.99801C12.729 6.36401 12.475 6.24901 11.716 6.36901C11.616 6.00101 11.516 5.63201 11.416 5.26301C11.3376 4.89799 11.1556 4.56332 10.8919 4.29906C10.6282 4.0348 10.2938 3.85216 9.92899 3.77301C9.87599 3.76001 9.82099 3.75102 9.76799 3.74002C9.75788 3.57515 9.78398 3.41005 9.8445 3.25636C9.90502 3.10266 9.99848 2.96409 10.1183 2.85038C10.2381 2.73667 10.3814 2.65059 10.538 2.59818C10.6946 2.54577 10.8609 2.5283 11.025 2.54701C12.8377 2.85568 14.649 3.17435 16.459 3.50302C16.682 3.53477 16.8892 3.63636 17.0509 3.7932C17.2126 3.95004 17.3205 4.15407 17.359 4.37601C17.3649 4.39311 17.3726 4.40954 17.382 4.42501L17.38 4.76101Z" fill="white"/>
</svg>
